<mxfile host="app.diagrams.net" modified="2023-11-17T17:14:12.089Z" agent="Mozilla/5.0 (Windows NT 10.0; Win64; x64) AppleWebKit/537.36 (KHTML, like Gecko) Chrome/119.0.0.0 Safari/537.36 Edg/119.0.0.0" etag="xyPaAE30AfCFvWDF120Z" version="22.1.3" type="github">
  <diagram name="Página-1" id="whJht1XOHp7WVKLZD-nA">
    <mxGraphModel dx="2253" dy="833" grid="1" gridSize="10" guides="1" tooltips="1" connect="1" arrows="1" fold="1" page="1" pageScale="1" pageWidth="827" pageHeight="1169" math="0" shadow="0">
      <root>
        <mxCell id="0" />
        <mxCell id="1" parent="0" />
        <mxCell id="ogAuhNkIlZfOTgi34TNQ-88" value="SistemaDeComércioEletrônico" style="swimlane;fontStyle=1;align=center;verticalAlign=top;childLayout=stackLayout;horizontal=1;startSize=26;horizontalStack=0;resizeParent=1;resizeParentMax=0;resizeLast=0;collapsible=0;marginBottom=0;" vertex="1" parent="1">
          <mxGeometry x="8" y="8" width="505" height="242" as="geometry" />
        </mxCell>
        <mxCell id="ogAuhNkIlZfOTgi34TNQ-89" value="- produtos: Produto[]" style="text;strokeColor=none;fillColor=none;align=left;verticalAlign=top;spacingLeft=4;spacingRight=4;overflow=hidden;rotatable=0;points=[[0,0.5],[1,0.5]];portConstraint=eastwest;" vertex="1" parent="ogAuhNkIlZfOTgi34TNQ-88">
          <mxGeometry y="26" width="505" height="26" as="geometry" />
        </mxCell>
        <mxCell id="ogAuhNkIlZfOTgi34TNQ-90" value="- usuários: Usuário[]" style="text;strokeColor=none;fillColor=none;align=left;verticalAlign=top;spacingLeft=4;spacingRight=4;overflow=hidden;rotatable=0;points=[[0,0.5],[1,0.5]];portConstraint=eastwest;" vertex="1" parent="ogAuhNkIlZfOTgi34TNQ-88">
          <mxGeometry y="52" width="505" height="26" as="geometry" />
        </mxCell>
        <mxCell id="ogAuhNkIlZfOTgi34TNQ-91" value="- carrinho: CarrinhoDeCompras" style="text;strokeColor=none;fillColor=none;align=left;verticalAlign=top;spacingLeft=4;spacingRight=4;overflow=hidden;rotatable=0;points=[[0,0.5],[1,0.5]];portConstraint=eastwest;" vertex="1" parent="ogAuhNkIlZfOTgi34TNQ-88">
          <mxGeometry y="78" width="505" height="26" as="geometry" />
        </mxCell>
        <mxCell id="ogAuhNkIlZfOTgi34TNQ-92" style="line;strokeWidth=1;fillColor=none;align=left;verticalAlign=middle;spacingTop=-1;spacingLeft=3;spacingRight=3;rotatable=0;labelPosition=right;points=[];portConstraint=eastwest;strokeColor=inherit;" vertex="1" parent="ogAuhNkIlZfOTgi34TNQ-88">
          <mxGeometry y="104" width="505" height="8" as="geometry" />
        </mxCell>
        <mxCell id="ogAuhNkIlZfOTgi34TNQ-93" value="+ adicionarProduto(produto: Produto): void" style="text;strokeColor=none;fillColor=none;align=left;verticalAlign=top;spacingLeft=4;spacingRight=4;overflow=hidden;rotatable=0;points=[[0,0.5],[1,0.5]];portConstraint=eastwest;" vertex="1" parent="ogAuhNkIlZfOTgi34TNQ-88">
          <mxGeometry y="112" width="505" height="26" as="geometry" />
        </mxCell>
        <mxCell id="ogAuhNkIlZfOTgi34TNQ-94" value="+ removerProduto(produto: Produto): void" style="text;strokeColor=none;fillColor=none;align=left;verticalAlign=top;spacingLeft=4;spacingRight=4;overflow=hidden;rotatable=0;points=[[0,0.5],[1,0.5]];portConstraint=eastwest;" vertex="1" parent="ogAuhNkIlZfOTgi34TNQ-88">
          <mxGeometry y="138" width="505" height="26" as="geometry" />
        </mxCell>
        <mxCell id="ogAuhNkIlZfOTgi34TNQ-95" value="+ adicionarAoCarrinho(produto: Produto, quantidade: number): void" style="text;strokeColor=none;fillColor=none;align=left;verticalAlign=top;spacingLeft=4;spacingRight=4;overflow=hidden;rotatable=0;points=[[0,0.5],[1,0.5]];portConstraint=eastwest;" vertex="1" parent="ogAuhNkIlZfOTgi34TNQ-88">
          <mxGeometry y="164" width="505" height="26" as="geometry" />
        </mxCell>
        <mxCell id="ogAuhNkIlZfOTgi34TNQ-96" value="+ removerDoCarrinho(produto: Produto, quantidade: number): void" style="text;strokeColor=none;fillColor=none;align=left;verticalAlign=top;spacingLeft=4;spacingRight=4;overflow=hidden;rotatable=0;points=[[0,0.5],[1,0.5]];portConstraint=eastwest;" vertex="1" parent="ogAuhNkIlZfOTgi34TNQ-88">
          <mxGeometry y="190" width="505" height="26" as="geometry" />
        </mxCell>
        <mxCell id="ogAuhNkIlZfOTgi34TNQ-97" value="+ finalizarCompra(): void" style="text;strokeColor=none;fillColor=none;align=left;verticalAlign=top;spacingLeft=4;spacingRight=4;overflow=hidden;rotatable=0;points=[[0,0.5],[1,0.5]];portConstraint=eastwest;" vertex="1" parent="ogAuhNkIlZfOTgi34TNQ-88">
          <mxGeometry y="216" width="505" height="26" as="geometry" />
        </mxCell>
        <mxCell id="ogAuhNkIlZfOTgi34TNQ-98" value="Produto" style="swimlane;fontStyle=1;align=center;verticalAlign=top;childLayout=stackLayout;horizontal=1;startSize=26.857142857142858;horizontalStack=0;resizeParent=1;resizeParentMax=0;resizeLast=0;collapsible=0;marginBottom=0;" vertex="1" parent="1">
          <mxGeometry x="263" y="359.13" width="250" height="107.85714285714286" as="geometry" />
        </mxCell>
        <mxCell id="ogAuhNkIlZfOTgi34TNQ-99" value="- nome: string" style="text;strokeColor=none;fillColor=none;align=left;verticalAlign=top;spacingLeft=4;spacingRight=4;overflow=hidden;rotatable=0;points=[[0,0.5],[1,0.5]];portConstraint=eastwest;" vertex="1" parent="ogAuhNkIlZfOTgi34TNQ-98">
          <mxGeometry y="26.857142857142858" width="250" height="27" as="geometry" />
        </mxCell>
        <mxCell id="ogAuhNkIlZfOTgi34TNQ-100" value="- preço: number" style="text;strokeColor=none;fillColor=none;align=left;verticalAlign=top;spacingLeft=4;spacingRight=4;overflow=hidden;rotatable=0;points=[[0,0.5],[1,0.5]];portConstraint=eastwest;" vertex="1" parent="ogAuhNkIlZfOTgi34TNQ-98">
          <mxGeometry y="53.85714285714286" width="250" height="27" as="geometry" />
        </mxCell>
        <mxCell id="ogAuhNkIlZfOTgi34TNQ-101" value="- descricao: string" style="text;strokeColor=none;fillColor=none;align=left;verticalAlign=top;spacingLeft=4;spacingRight=4;overflow=hidden;rotatable=0;points=[[0,0.5],[1,0.5]];portConstraint=eastwest;" vertex="1" parent="ogAuhNkIlZfOTgi34TNQ-98">
          <mxGeometry y="80.85714285714286" width="250" height="27" as="geometry" />
        </mxCell>
        <mxCell id="ogAuhNkIlZfOTgi34TNQ-109" value="Usuário" style="swimlane;fontStyle=1;align=center;verticalAlign=top;childLayout=stackLayout;horizontal=1;startSize=25.25;horizontalStack=0;resizeParent=1;resizeParentMax=0;resizeLast=0;collapsible=0;marginBottom=0;" vertex="1" parent="1">
          <mxGeometry x="780" y="320" width="376" height="125.25" as="geometry" />
        </mxCell>
        <mxCell id="ogAuhNkIlZfOTgi34TNQ-110" value="- nome: string" style="text;strokeColor=none;fillColor=none;align=left;verticalAlign=top;spacingLeft=4;spacingRight=4;overflow=hidden;rotatable=0;points=[[0,0.5],[1,0.5]];portConstraint=eastwest;" vertex="1" parent="ogAuhNkIlZfOTgi34TNQ-109">
          <mxGeometry y="25.25" width="376" height="25" as="geometry" />
        </mxCell>
        <mxCell id="ogAuhNkIlZfOTgi34TNQ-111" value="- email: string" style="text;strokeColor=none;fillColor=none;align=left;verticalAlign=top;spacingLeft=4;spacingRight=4;overflow=hidden;rotatable=0;points=[[0,0.5],[1,0.5]];portConstraint=eastwest;" vertex="1" parent="ogAuhNkIlZfOTgi34TNQ-109">
          <mxGeometry y="50.25" width="376" height="25" as="geometry" />
        </mxCell>
        <mxCell id="ogAuhNkIlZfOTgi34TNQ-112" value="- senha: string" style="text;strokeColor=none;fillColor=none;align=left;verticalAlign=top;spacingLeft=4;spacingRight=4;overflow=hidden;rotatable=0;points=[[0,0.5],[1,0.5]];portConstraint=eastwest;" vertex="1" parent="ogAuhNkIlZfOTgi34TNQ-109">
          <mxGeometry y="75.25" width="376" height="25" as="geometry" />
        </mxCell>
        <mxCell id="ogAuhNkIlZfOTgi34TNQ-113" value="- carrinho : CarrinhoDeCompras;" style="text;strokeColor=none;fillColor=none;align=left;verticalAlign=top;spacingLeft=4;spacingRight=4;overflow=hidden;rotatable=0;points=[[0,0.5],[1,0.5]];portConstraint=eastwest;" vertex="1" parent="ogAuhNkIlZfOTgi34TNQ-109">
          <mxGeometry y="100.25" width="376" height="25" as="geometry" />
        </mxCell>
        <mxCell id="ogAuhNkIlZfOTgi34TNQ-124" value="CarrinhoDeCompras" style="swimlane;fontStyle=1;align=center;verticalAlign=top;childLayout=stackLayout;horizontal=1;startSize=27.5;horizontalStack=0;resizeParent=1;resizeParentMax=0;resizeLast=0;collapsible=0;marginBottom=0;" vertex="1" parent="1">
          <mxGeometry x="-90" y="760" width="459" height="175.5" as="geometry" />
        </mxCell>
        <mxCell id="ogAuhNkIlZfOTgi34TNQ-125" value="- itens: ItemCarrinho[]" style="text;strokeColor=none;fillColor=none;align=left;verticalAlign=top;spacingLeft=4;spacingRight=4;overflow=hidden;rotatable=0;points=[[0,0.5],[1,0.5]];portConstraint=eastwest;" vertex="1" parent="ogAuhNkIlZfOTgi34TNQ-124">
          <mxGeometry y="27.5" width="459" height="28" as="geometry" />
        </mxCell>
        <mxCell id="ogAuhNkIlZfOTgi34TNQ-126" style="line;strokeWidth=1;fillColor=none;align=left;verticalAlign=middle;spacingTop=-1;spacingLeft=3;spacingRight=3;rotatable=0;labelPosition=right;points=[];portConstraint=eastwest;strokeColor=inherit;" vertex="1" parent="ogAuhNkIlZfOTgi34TNQ-124">
          <mxGeometry y="55.5" width="459" height="8" as="geometry" />
        </mxCell>
        <mxCell id="ogAuhNkIlZfOTgi34TNQ-127" value="+ adicionarItem(produto: Produto, quantidade: number): void" style="text;strokeColor=none;fillColor=none;align=left;verticalAlign=top;spacingLeft=4;spacingRight=4;overflow=hidden;rotatable=0;points=[[0,0.5],[1,0.5]];portConstraint=eastwest;" vertex="1" parent="ogAuhNkIlZfOTgi34TNQ-124">
          <mxGeometry y="63.5" width="459" height="28" as="geometry" />
        </mxCell>
        <mxCell id="ogAuhNkIlZfOTgi34TNQ-128" value="+ removerItem(produto: Produto, quantidade: number): void" style="text;strokeColor=none;fillColor=none;align=left;verticalAlign=top;spacingLeft=4;spacingRight=4;overflow=hidden;rotatable=0;points=[[0,0.5],[1,0.5]];portConstraint=eastwest;" vertex="1" parent="ogAuhNkIlZfOTgi34TNQ-124">
          <mxGeometry y="91.5" width="459" height="28" as="geometry" />
        </mxCell>
        <mxCell id="ogAuhNkIlZfOTgi34TNQ-129" value="+ esvaziarCarrinho(): void" style="text;strokeColor=none;fillColor=none;align=left;verticalAlign=top;spacingLeft=4;spacingRight=4;overflow=hidden;rotatable=0;points=[[0,0.5],[1,0.5]];portConstraint=eastwest;" vertex="1" parent="ogAuhNkIlZfOTgi34TNQ-124">
          <mxGeometry y="119.5" width="459" height="28" as="geometry" />
        </mxCell>
        <mxCell id="ogAuhNkIlZfOTgi34TNQ-130" value="+ calcularTotal(): number" style="text;strokeColor=none;fillColor=none;align=left;verticalAlign=top;spacingLeft=4;spacingRight=4;overflow=hidden;rotatable=0;points=[[0,0.5],[1,0.5]];portConstraint=eastwest;" vertex="1" parent="ogAuhNkIlZfOTgi34TNQ-124">
          <mxGeometry y="147.5" width="459" height="28" as="geometry" />
        </mxCell>
        <mxCell id="ogAuhNkIlZfOTgi34TNQ-131" value="ItemCarrinho" style="swimlane;fontStyle=1;align=center;verticalAlign=top;childLayout=stackLayout;horizontal=1;startSize=26.857142857142858;horizontalStack=0;resizeParent=1;resizeParentMax=0;resizeLast=0;collapsible=0;marginBottom=0;" vertex="1" parent="1">
          <mxGeometry x="220" y="1100" width="331" height="196.85714285714286" as="geometry" />
        </mxCell>
        <mxCell id="ogAuhNkIlZfOTgi34TNQ-132" value="- produto: Produto" style="text;strokeColor=none;fillColor=none;align=left;verticalAlign=top;spacingLeft=4;spacingRight=4;overflow=hidden;rotatable=0;points=[[0,0.5],[1,0.5]];portConstraint=eastwest;" vertex="1" parent="ogAuhNkIlZfOTgi34TNQ-131">
          <mxGeometry y="26.857142857142858" width="331" height="27" as="geometry" />
        </mxCell>
        <mxCell id="ogAuhNkIlZfOTgi34TNQ-133" value="- quantidade: number" style="text;strokeColor=none;fillColor=none;align=left;verticalAlign=top;spacingLeft=4;spacingRight=4;overflow=hidden;rotatable=0;points=[[0,0.5],[1,0.5]];portConstraint=eastwest;" vertex="1" parent="ogAuhNkIlZfOTgi34TNQ-131">
          <mxGeometry y="53.85714285714286" width="331" height="27" as="geometry" />
        </mxCell>
        <mxCell id="ogAuhNkIlZfOTgi34TNQ-134" style="line;strokeWidth=1;fillColor=none;align=left;verticalAlign=middle;spacingTop=-1;spacingLeft=3;spacingRight=3;rotatable=0;labelPosition=right;points=[];portConstraint=eastwest;strokeColor=inherit;" vertex="1" parent="ogAuhNkIlZfOTgi34TNQ-131">
          <mxGeometry y="80.85714285714286" width="331" height="8" as="geometry" />
        </mxCell>
        <mxCell id="ogAuhNkIlZfOTgi34TNQ-135" value="+ getProduto(): Produto" style="text;strokeColor=none;fillColor=none;align=left;verticalAlign=top;spacingLeft=4;spacingRight=4;overflow=hidden;rotatable=0;points=[[0,0.5],[1,0.5]];portConstraint=eastwest;" vertex="1" parent="ogAuhNkIlZfOTgi34TNQ-131">
          <mxGeometry y="88.85714285714286" width="331" height="27" as="geometry" />
        </mxCell>
        <mxCell id="ogAuhNkIlZfOTgi34TNQ-136" value="+ setProduto(produto: Produto): void" style="text;strokeColor=none;fillColor=none;align=left;verticalAlign=top;spacingLeft=4;spacingRight=4;overflow=hidden;rotatable=0;points=[[0,0.5],[1,0.5]];portConstraint=eastwest;" vertex="1" parent="ogAuhNkIlZfOTgi34TNQ-131">
          <mxGeometry y="115.85714285714286" width="331" height="27" as="geometry" />
        </mxCell>
        <mxCell id="ogAuhNkIlZfOTgi34TNQ-137" value="+ getQuantidade(): number" style="text;strokeColor=none;fillColor=none;align=left;verticalAlign=top;spacingLeft=4;spacingRight=4;overflow=hidden;rotatable=0;points=[[0,0.5],[1,0.5]];portConstraint=eastwest;" vertex="1" parent="ogAuhNkIlZfOTgi34TNQ-131">
          <mxGeometry y="142.85714285714286" width="331" height="27" as="geometry" />
        </mxCell>
        <mxCell id="ogAuhNkIlZfOTgi34TNQ-138" value="+ setQuantidade(quantidade: number): void" style="text;strokeColor=none;fillColor=none;align=left;verticalAlign=top;spacingLeft=4;spacingRight=4;overflow=hidden;rotatable=0;points=[[0,0.5],[1,0.5]];portConstraint=eastwest;" vertex="1" parent="ogAuhNkIlZfOTgi34TNQ-131">
          <mxGeometry y="169.85714285714286" width="331" height="27" as="geometry" />
        </mxCell>
        <mxCell id="ogAuhNkIlZfOTgi34TNQ-139" value="" style="curved=1;startArrow=none;endArrow=open;endSize=12;exitX=0.630542604774176;exitY=1;entryX=0.5000630040322581;entryY=-0.002551020408163265;" edge="1" parent="1" source="ogAuhNkIlZfOTgi34TNQ-88" target="ogAuhNkIlZfOTgi34TNQ-98">
          <mxGeometry relative="1" as="geometry">
            <Array as="points">
              <mxPoint x="340" y="275" />
            </Array>
          </mxGeometry>
        </mxCell>
        <mxCell id="ogAuhNkIlZfOTgi34TNQ-140" value="1" style="edgeLabel;resizable=0;align=left;verticalAlign=top;" vertex="1" parent="ogAuhNkIlZfOTgi34TNQ-139">
          <mxGeometry x="-1" relative="1" as="geometry" />
        </mxCell>
        <mxCell id="ogAuhNkIlZfOTgi34TNQ-141" value="" style="curved=1;startArrow=none;endArrow=open;endSize=12;exitX=1.0005569306930693;exitY=0.8454848545583772;entryX=0.49951171875;entryY=0;" edge="1" parent="1" source="ogAuhNkIlZfOTgi34TNQ-88" target="ogAuhNkIlZfOTgi34TNQ-109">
          <mxGeometry relative="1" as="geometry">
            <Array as="points">
              <mxPoint x="702" y="275" />
            </Array>
          </mxGeometry>
        </mxCell>
        <mxCell id="ogAuhNkIlZfOTgi34TNQ-142" value="1" style="edgeLabel;resizable=0;align=left;verticalAlign=top;" vertex="1" parent="ogAuhNkIlZfOTgi34TNQ-141">
          <mxGeometry x="-1" relative="1" as="geometry" />
        </mxCell>
        <mxCell id="ogAuhNkIlZfOTgi34TNQ-143" value="" style="curved=1;startArrow=none;endArrow=open;endSize=12;exitX=0.2832335357893666;exitY=1;entryX=0.27677573193577387;entryY=0;" edge="1" parent="1" source="ogAuhNkIlZfOTgi34TNQ-88" target="ogAuhNkIlZfOTgi34TNQ-124">
          <mxGeometry relative="1" as="geometry">
            <Array as="points">
              <mxPoint x="128" y="275" />
              <mxPoint x="128" y="636" />
            </Array>
          </mxGeometry>
        </mxCell>
        <mxCell id="ogAuhNkIlZfOTgi34TNQ-144" value="1" style="edgeLabel;resizable=0;align=left;verticalAlign=top;" vertex="1" parent="ogAuhNkIlZfOTgi34TNQ-143">
          <mxGeometry x="-1" relative="1" as="geometry" />
        </mxCell>
        <mxCell id="ogAuhNkIlZfOTgi34TNQ-145" value="1" style="edgeLabel;resizable=0;align=right;verticalAlign=top;" vertex="1" parent="ogAuhNkIlZfOTgi34TNQ-143">
          <mxGeometry x="1" relative="1" as="geometry" />
        </mxCell>
        <mxCell id="ogAuhNkIlZfOTgi34TNQ-146" value="" style="curved=1;startArrow=none;endArrow=open;endSize=12;exitX=0.5003063725490197;exitY=1;entryX=0.28340264473264076;entryY=0;" edge="1" parent="1" source="ogAuhNkIlZfOTgi34TNQ-124" target="ogAuhNkIlZfOTgi34TNQ-131">
          <mxGeometry relative="1" as="geometry">
            <Array as="points">
              <mxPoint x="220" y="1030" />
            </Array>
          </mxGeometry>
        </mxCell>
        <mxCell id="ogAuhNkIlZfOTgi34TNQ-147" value="1" style="edgeLabel;resizable=0;align=left;verticalAlign=top;" vertex="1" parent="ogAuhNkIlZfOTgi34TNQ-146">
          <mxGeometry x="-1" relative="1" as="geometry" />
        </mxCell>
        <mxCell id="ogAuhNkIlZfOTgi34TNQ-148" value="*" style="edgeLabel;resizable=0;align=right;verticalAlign=top;" vertex="1" parent="ogAuhNkIlZfOTgi34TNQ-146">
          <mxGeometry x="1" relative="1" as="geometry" />
        </mxCell>
        <mxCell id="ogAuhNkIlZfOTgi34TNQ-149" value="" style="curved=1;startArrow=none;endArrow=none;entryX=0.5;entryY=0;exitX=0.511;exitY=1.087;exitDx=0;exitDy=0;entryDx=0;entryDy=0;exitPerimeter=0;" edge="1" parent="1" source="ogAuhNkIlZfOTgi34TNQ-101" target="ogAuhNkIlZfOTgi34TNQ-131">
          <mxGeometry relative="1" as="geometry">
            <Array as="points">
              <mxPoint x="450" y="760" />
            </Array>
            <mxPoint x="391.75" y="655.175162857143" as="sourcePoint" />
          </mxGeometry>
        </mxCell>
        <mxCell id="ogAuhNkIlZfOTgi34TNQ-150" value="1" style="edgeLabel;resizable=0;align=left;verticalAlign=top;" vertex="1" parent="ogAuhNkIlZfOTgi34TNQ-149">
          <mxGeometry x="-1" relative="1" as="geometry" />
        </mxCell>
        <mxCell id="ogAuhNkIlZfOTgi34TNQ-151" value="" style="curved=1;startArrow=none;endArrow=none;exitX=0.999054939516129;exitY=0.7959388034891881;entryX=0.9981589879154078;entryY=0.2208686607621267;" edge="1" parent="1" source="ogAuhNkIlZfOTgi34TNQ-98" target="ogAuhNkIlZfOTgi34TNQ-131">
          <mxGeometry relative="1" as="geometry">
            <Array as="points">
              <mxPoint x="722" y="636" />
              <mxPoint x="722" y="859" />
            </Array>
          </mxGeometry>
        </mxCell>
        <mxCell id="ogAuhNkIlZfOTgi34TNQ-152" value="1" style="edgeLabel;resizable=0;align=left;verticalAlign=top;" vertex="1" parent="ogAuhNkIlZfOTgi34TNQ-151">
          <mxGeometry x="-1" relative="1" as="geometry" />
        </mxCell>
        <mxCell id="ogAuhNkIlZfOTgi34TNQ-153" value="*" style="edgeLabel;resizable=0;align=right;verticalAlign=top;fontSize=20;" vertex="1" parent="ogAuhNkIlZfOTgi34TNQ-151">
          <mxGeometry x="1" relative="1" as="geometry">
            <mxPoint x="29" y="-23" as="offset" />
          </mxGeometry>
        </mxCell>
        <mxCell id="ogAuhNkIlZfOTgi34TNQ-154" value="" style="endArrow=none;html=1;rounded=0;exitX=1;exitY=0.5;exitDx=0;exitDy=0;entryX=0;entryY=0.5;entryDx=0;entryDy=0;" edge="1" parent="1" source="ogAuhNkIlZfOTgi34TNQ-128">
          <mxGeometry width="50" height="50" relative="1" as="geometry">
            <mxPoint x="750" y="470" as="sourcePoint" />
            <mxPoint x="780" y="640.75" as="targetPoint" />
          </mxGeometry>
        </mxCell>
        <mxCell id="ogAuhNkIlZfOTgi34TNQ-155" value="Extends" style="endArrow=block;endSize=16;endFill=0;html=1;rounded=0;entryX=1;entryY=0.5;entryDx=0;entryDy=0;exitX=0.014;exitY=1;exitDx=0;exitDy=0;exitPerimeter=0;" edge="1" parent="1" source="ogAuhNkIlZfOTgi34TNQ-157">
          <mxGeometry width="160" relative="1" as="geometry">
            <mxPoint x="1360" y="395" as="sourcePoint" />
            <mxPoint x="1156" y="490.75" as="targetPoint" />
          </mxGeometry>
        </mxCell>
        <mxCell id="ogAuhNkIlZfOTgi34TNQ-156" value="PessoaJuridica" style="swimlane;fontStyle=0;childLayout=stackLayout;horizontal=1;startSize=26;fillColor=none;horizontalStack=0;resizeParent=1;resizeParentMax=0;resizeLast=0;collapsible=1;marginBottom=0;whiteSpace=wrap;html=1;" vertex="1" parent="1">
          <mxGeometry x="1360" y="330" width="140" height="52" as="geometry" />
        </mxCell>
        <mxCell id="ogAuhNkIlZfOTgi34TNQ-157" value="- CNPJ: string" style="text;strokeColor=none;fillColor=none;align=left;verticalAlign=top;spacingLeft=4;spacingRight=4;overflow=hidden;rotatable=0;points=[[0,0.5],[1,0.5]];portConstraint=eastwest;whiteSpace=wrap;html=1;" vertex="1" parent="ogAuhNkIlZfOTgi34TNQ-156">
          <mxGeometry y="26" width="140" height="26" as="geometry" />
        </mxCell>
        <mxCell id="ogAuhNkIlZfOTgi34TNQ-158" value="PessoaFisica" style="swimlane;fontStyle=0;childLayout=stackLayout;horizontal=1;startSize=26;fillColor=none;horizontalStack=0;resizeParent=1;resizeParentMax=0;resizeLast=0;collapsible=1;marginBottom=0;whiteSpace=wrap;html=1;" vertex="1" parent="1">
          <mxGeometry x="1360" y="600" width="140" height="52" as="geometry" />
        </mxCell>
        <mxCell id="ogAuhNkIlZfOTgi34TNQ-159" value="- CPF: string" style="text;strokeColor=none;fillColor=none;align=left;verticalAlign=top;spacingLeft=4;spacingRight=4;overflow=hidden;rotatable=0;points=[[0,0.5],[1,0.5]];portConstraint=eastwest;whiteSpace=wrap;html=1;" vertex="1" parent="ogAuhNkIlZfOTgi34TNQ-158">
          <mxGeometry y="26" width="140" height="26" as="geometry" />
        </mxCell>
        <mxCell id="ogAuhNkIlZfOTgi34TNQ-160" value="Extends" style="endArrow=block;endSize=16;endFill=0;html=1;rounded=0;exitX=0;exitY=0;exitDx=0;exitDy=0;entryX=1;entryY=0.5;entryDx=0;entryDy=0;" edge="1" parent="1" source="ogAuhNkIlZfOTgi34TNQ-158">
          <mxGeometry width="160" relative="1" as="geometry">
            <mxPoint x="1372" y="392" as="sourcePoint" />
            <mxPoint x="1156" y="540.75" as="targetPoint" />
          </mxGeometry>
        </mxCell>
        <mxCell id="ogAuhNkIlZfOTgi34TNQ-161" value="1" style="edgeLabel;resizable=0;align=left;verticalAlign=top;" vertex="1" parent="1">
          <mxGeometry x="369" y="1069.9961428571428" as="geometry" />
        </mxCell>
      </root>
    </mxGraphModel>
  </diagram>
</mxfile>
